<svg width="24" height="24" viewBox="0 0 24 24" fill="none" xmlns="http://www.w3.org/2000/svg">
<path fill-rule="evenodd" clip-rule="evenodd" d="M20.83 17H19.89V10C19.89 5.58172 16.3083 2 11.89 2C7.47172 2 3.89 5.58172 3.89 10V17H3C2.44772 17 2 17.4477 2 18C2 18.5523 2.44772 19 3 19H8.89C8.89 20.6569 10.2331 22 11.89 22C13.5469 22 14.89 20.6569 14.89 19H20.83C21.3823 19 21.83 18.5523 21.83 18C21.83 17.4477 21.3823 17 20.83 17ZM11.89 20C11.3377 20 10.89 19.5523 10.89 19H12.89C12.89 19.5523 12.4423 20 11.89 20ZM5.89 17H13.89H17.89V10C17.89 6.68629 15.2037 4 11.89 4C8.57629 4 5.89 6.68629 5.89 10V17Z" fill="#CCD2E3"/>
</svg>
