<svg width="50" height="16" viewBox="0 0 50 16" fill="none" xmlns="http://www.w3.org/2000/svg">
<path d="M10.206 9.634V11.128C10.206 11.428 10.164 11.674 10.08 11.866C9.996 12.046 9.888 12.19 9.756 12.298C9.624 12.394 9.468 12.46 9.288 12.496C9.12 12.532 8.94 12.55 8.748 12.55C8.556 12.55 8.37 12.532 8.19 12.496C8.022 12.46 7.866 12.394 7.722 12.298C7.59 12.19 7.482 12.046 7.398 11.866C7.326 11.674 7.29 11.428 7.29 11.128V9.634H1.998C1.698 9.634 1.458 9.604 1.278 9.544C1.098 9.484 0.96 9.406 0.864 9.31C0.768 9.202 0.702 9.082 0.666 8.95C0.642 8.806 0.63 8.65 0.63 8.482C0.63 8.35 0.642 8.218 0.666 8.086C0.702 7.954 0.768 7.834 0.864 7.726C0.96 7.618 1.098 7.534 1.278 7.474C1.458 7.402 1.698 7.366 1.998 7.366H15.084C15.384 7.366 15.624 7.402 15.804 7.474C15.984 7.534 16.122 7.618 16.218 7.726C16.314 7.834 16.374 7.954 16.398 8.086C16.434 8.218 16.452 8.35 16.452 8.482C16.452 8.65 16.434 8.806 16.398 8.95C16.374 9.082 16.314 9.202 16.218 9.31C16.122 9.406 15.984 9.484 15.804 9.544C15.624 9.604 15.384 9.634 15.084 9.634H10.206ZM3.348 6.106C3.012 6.106 2.748 6.076 2.556 6.016C2.364 5.944 2.214 5.854 2.106 5.746C2.01 5.626 1.95 5.494 1.926 5.35C1.902 5.194 1.89 5.026 1.89 4.846V1.786C1.89 1.186 2.034 0.777999 2.322 0.561999C2.622 0.333999 2.964 0.219999 3.348 0.219999C3.54 0.219999 3.72 0.243999 3.888 0.291999C4.068 0.34 4.224 0.424 4.356 0.543999C4.488 0.663999 4.596 0.825999 4.68 1.03C4.764 1.234 4.806 1.486 4.806 1.786V3.82H13.788C14.088 3.82 14.328 3.856 14.508 3.928C14.688 4 14.826 4.09 14.922 4.198C15.018 4.306 15.078 4.426 15.102 4.558C15.138 4.69 15.156 4.816 15.156 4.936C15.156 5.092 15.138 5.242 15.102 5.386C15.078 5.518 15.018 5.638 14.922 5.746C14.826 5.854 14.688 5.944 14.508 6.016C14.328 6.076 14.088 6.106 13.788 6.106H3.348ZM3.348 15.844C3.012 15.844 2.748 15.808 2.556 15.736C2.364 15.676 2.214 15.586 2.106 15.466C2.01 15.358 1.95 15.226 1.926 15.07C1.902 14.926 1.89 14.764 1.89 14.584V12.1C1.89 11.5 2.034 11.092 2.322 10.876C2.622 10.648 2.964 10.534 3.348 10.534C3.54 10.534 3.72 10.558 3.888 10.606C4.068 10.654 4.224 10.738 4.356 10.858C4.488 10.978 4.596 11.14 4.68 11.344C4.764 11.548 4.806 11.8 4.806 12.1V13.54H13.788C14.088 13.54 14.328 13.576 14.508 13.648C14.688 13.72 14.826 13.81 14.922 13.918C15.018 14.026 15.078 14.146 15.102 14.278C15.138 14.422 15.156 14.554 15.156 14.674C15.156 14.83 15.138 14.974 15.102 15.106C15.078 15.25 15.018 15.376 14.922 15.484C14.826 15.592 14.688 15.676 14.508 15.736C14.328 15.808 14.088 15.844 13.788 15.844H3.348ZM26.2115 9.148V12.964H30.9995C31.3355 12.964 31.6115 12.994 31.8275 13.054C32.0435 13.126 32.2115 13.216 32.3315 13.324C32.4515 13.444 32.5295 13.576 32.5655 13.72C32.6135 13.876 32.6375 14.044 32.6375 14.224C32.6375 14.368 32.6135 14.512 32.5655 14.656C32.5295 14.812 32.4515 14.944 32.3315 15.052C32.2115 15.172 32.0435 15.268 31.8275 15.34C31.6115 15.412 31.3355 15.448 30.9995 15.448H18.4895C18.1535 15.448 17.8775 15.412 17.6615 15.34C17.4455 15.268 17.2775 15.172 17.1575 15.052C17.0375 14.944 16.9535 14.812 16.9055 14.656C16.8695 14.512 16.8515 14.368 16.8515 14.224C16.8515 14.044 16.8695 13.876 16.9055 13.72C16.9535 13.576 17.0375 13.444 17.1575 13.324C17.2775 13.216 17.4455 13.126 17.6615 13.054C17.8775 12.994 18.1535 12.964 18.4895 12.964H23.2955V9.148H19.6055C19.2695 9.148 19.0055 9.112 18.8135 9.04C18.6215 8.968 18.4715 8.872 18.3635 8.752C18.2675 8.62 18.2075 8.476 18.1835 8.32C18.1595 8.152 18.1475 7.978 18.1475 7.798V1.966C18.1475 1.366 18.2915 0.957999 18.5795 0.741999C18.8795 0.513999 19.2215 0.399999 19.6055 0.399999H29.8115C30.1115 0.399999 30.3515 0.435999 30.5315 0.508C30.7115 0.58 30.8495 0.676 30.9455 0.795999C31.0415 0.915999 31.1015 1.054 31.1255 1.21C31.1615 1.354 31.1795 1.504 31.1795 1.66C31.1795 1.792 31.1615 1.93 31.1255 2.074C31.1015 2.218 31.0415 2.35 30.9455 2.47C30.8495 2.59 30.7115 2.692 30.5315 2.776C30.3515 2.86 30.1115 2.902 29.8115 2.902H21.0635V6.646H29.9915C30.2915 6.646 30.5315 6.688 30.7115 6.772C30.8915 6.856 31.0295 6.958 31.1255 7.078C31.2215 7.198 31.2815 7.336 31.3055 7.492C31.3415 7.636 31.3595 7.768 31.3595 7.888C31.3595 8.044 31.3415 8.2 31.3055 8.356C31.2815 8.5 31.2215 8.632 31.1255 8.752C31.0295 8.872 30.8915 8.968 30.7115 9.04C30.5315 9.112 30.2915 9.148 29.9915 9.148H26.2115ZM36.619 15.88C36.055 15.868 35.575 15.766 35.179 15.574C34.783 15.394 34.465 15.154 34.225 14.854C33.985 14.566 33.811 14.23 33.703 13.846C33.595 13.474 33.541 13.078 33.541 12.658C33.541 12.238 33.589 11.836 33.685 11.452C33.781 11.068 33.943 10.726 34.171 10.426C34.411 10.126 34.729 9.892 35.125 9.724C35.533 9.544 36.043 9.448 36.655 9.436H44.359C44.971 9.436 45.475 9.526 45.871 9.706C46.279 9.886 46.597 10.126 46.825 10.426C47.065 10.714 47.233 11.056 47.329 11.452C47.425 11.836 47.473 12.238 47.473 12.658C47.473 13.078 47.419 13.474 47.311 13.846C47.203 14.23 47.023 14.566 46.771 14.854C46.531 15.154 46.213 15.394 45.817 15.574C45.433 15.766 44.959 15.868 44.395 15.88H36.619ZM43.891 1.786C43.891 1.186 44.035 0.777999 44.323 0.561999C44.623 0.333999 44.965 0.219999 45.349 0.219999C45.541 0.219999 45.721 0.243999 45.889 0.291999C46.069 0.34 46.225 0.424 46.357 0.543999C46.489 0.663999 46.597 0.825999 46.681 1.03C46.765 1.234 46.807 1.486 46.807 1.786V3.118H48.085C48.421 3.118 48.697 3.16 48.913 3.244C49.129 3.316 49.297 3.412 49.417 3.532C49.537 3.652 49.615 3.79 49.651 3.946C49.699 4.09 49.723 4.234 49.723 4.378C49.723 4.558 49.699 4.726 49.651 4.882C49.615 5.038 49.537 5.176 49.417 5.296C49.297 5.404 49.129 5.494 48.913 5.566C48.697 5.638 48.421 5.674 48.085 5.674H46.807V7.24C46.807 7.552 46.765 7.81 46.681 8.014C46.597 8.218 46.489 8.38 46.357 8.5C46.225 8.62 46.069 8.704 45.889 8.752C45.721 8.8 45.541 8.824 45.349 8.824C45.157 8.824 44.971 8.8 44.791 8.752C44.623 8.704 44.467 8.62 44.323 8.5C44.191 8.38 44.083 8.218 43.999 8.014C43.927 7.81 43.891 7.552 43.891 7.24V1.786ZM43.585 13.432C43.933 13.408 44.185 13.354 44.341 13.27C44.497 13.186 44.575 12.982 44.575 12.658C44.575 12.322 44.497 12.112 44.341 12.028C44.185 11.944 43.933 11.89 43.585 11.866H37.429C37.081 11.89 36.829 11.944 36.673 12.028C36.517 12.112 36.439 12.322 36.439 12.658C36.439 12.982 36.517 13.186 36.673 13.27C36.829 13.354 37.081 13.408 37.429 13.432H43.585ZM33.217 1.732C33.217 1.552 33.235 1.39 33.271 1.246C33.319 1.09 33.403 0.958 33.523 0.85C33.643 0.742 33.811 0.658 34.027 0.598C34.243 0.538 34.519 0.508 34.855 0.508H40.201C40.537 0.508 40.813 0.538 41.029 0.598C41.245 0.658 41.413 0.742 41.533 0.85C41.653 0.958 41.731 1.09 41.767 1.246C41.815 1.39 41.839 1.552 41.839 1.732C41.839 1.876 41.815 2.02 41.767 2.164C41.731 2.308 41.653 2.44 41.533 2.56C41.413 2.668 41.245 2.758 41.029 2.83C40.813 2.89 40.537 2.92 40.201 2.92H39.103C39.139 3.256 39.205 3.544 39.301 3.784C39.397 4.024 39.535 4.252 39.715 4.468C39.895 4.684 40.123 4.9 40.399 5.116C40.687 5.332 41.035 5.584 41.443 5.872C41.827 6.148 42.079 6.448 42.199 6.772C42.331 7.084 42.277 7.432 42.037 7.816C41.905 8.02 41.743 8.176 41.551 8.284C41.371 8.38 41.173 8.434 40.957 8.446C40.825 8.446 40.687 8.434 40.543 8.41C40.399 8.374 40.261 8.308 40.129 8.212C39.709 7.9 39.289 7.552 38.869 7.168C38.449 6.784 38.065 6.37 37.717 5.926C37.393 6.382 37.027 6.808 36.619 7.204C36.223 7.6 35.797 7.93 35.341 8.194C35.185 8.29 35.011 8.368 34.819 8.428C34.639 8.488 34.453 8.524 34.261 8.536C34.057 8.548 33.847 8.512 33.631 8.428C33.415 8.344 33.235 8.182 33.091 7.942C32.851 7.558 32.791 7.21 32.911 6.898C33.043 6.574 33.301 6.274 33.685 5.998C34.081 5.71 34.417 5.458 34.693 5.242C34.981 5.014 35.215 4.786 35.395 4.558C35.587 4.33 35.731 4.09 35.827 3.838C35.935 3.574 36.007 3.268 36.043 2.92H34.855C34.519 2.92 34.243 2.89 34.027 2.83C33.811 2.758 33.643 2.668 33.523 2.56C33.403 2.44 33.319 2.308 33.271 2.164C33.235 2.02 33.217 1.876 33.217 1.732Z" fill="#7CB1FF"/>
</svg>
